<svg width="100" height="100" viewBox="0 0 100 100" fill="none" xmlns="http://www.w3.org/2000/svg">
<circle cx="50" cy="50" r="50" fill="#FFD600"/>
<path d="M69.4444 30.0683H57.8333C56.6667 27.1287 53.6111 25 50 25C46.3889 25 43.3333 27.1287 42.1667 30.0683H30.5556C27.5 30.0683 25 32.349 25 35.1366V70.6147C25 73.4023 27.5 75.683 30.5556 75.683H69.4444C72.5 75.683 75 73.4023 75 70.6147V35.1366C75 32.349 72.5 30.0683 69.4444 30.0683ZM50 30.0683C51.5278 30.0683 52.7778 31.2087 52.7778 32.6025C52.7778 33.9962 51.5278 35.1366 50 35.1366C48.4722 35.1366 47.2222 33.9962 47.2222 32.6025C47.2222 31.2087 48.4722 30.0683 50 30.0683ZM50 40.2049C54.6111 40.2049 58.3333 43.6007 58.3333 47.8074C58.3333 52.0141 54.6111 55.4098 50 55.4098C45.3889 55.4098 41.6667 52.0141 41.6667 47.8074C41.6667 43.6007 45.3889 40.2049 50 40.2049ZM66.6667 70.6147H33.3333V67.0669C33.3333 61.9986 44.4444 59.211 50 59.211C55.5556 59.211 66.6667 61.9986 66.6667 67.0669V70.6147Z" fill="white"/>
</svg>
