<svg width="35" height="36" viewBox="0 0 35 36" fill="none" xmlns="http://www.w3.org/2000/svg">
<path d="M9.72222 0.0786133C4.35361 0.0786133 0 4.43222 0 9.80084V25.3564C0 30.725 4.35361 35.0786 9.72222 35.0786H25.2778C30.6464 35.0786 35 30.725 35 25.3564V9.80084C35 4.43222 30.6464 0.0786133 25.2778 0.0786133H9.72222ZM29.1667 3.9675C30.24 3.9675 31.1111 4.83861 31.1111 5.91195C31.1111 6.98528 30.24 7.85639 29.1667 7.85639C28.0933 7.85639 27.2222 6.98528 27.2222 5.91195C27.2222 4.83861 28.0933 3.9675 29.1667 3.9675ZM17.5 7.85639C22.8686 7.85639 27.2222 12.21 27.2222 17.5786C27.2222 22.9472 22.8686 27.3008 17.5 27.3008C12.1314 27.3008 7.77778 22.9472 7.77778 17.5786C7.77778 12.21 12.1314 7.85639 17.5 7.85639ZM17.5 11.7453C15.9529 11.7453 14.4692 12.3599 13.3752 13.4538C12.2812 14.5478 11.6667 16.0315 11.6667 17.5786C11.6667 19.1257 12.2812 20.6094 13.3752 21.7034C14.4692 22.7974 15.9529 23.4119 17.5 23.4119C19.0471 23.4119 20.5308 22.7974 21.6248 21.7034C22.7188 20.6094 23.3333 19.1257 23.3333 17.5786C23.3333 16.0315 22.7188 14.5478 21.6248 13.4538C20.5308 12.3599 19.0471 11.7453 17.5 11.7453Z" fill="white"/>
</svg>
