<svg width="36" height="36" viewBox="0 0 36 36" fill="none" xmlns="http://www.w3.org/2000/svg">
<path d="M30.6314 5.46677C27.3307 2.16452 22.9415 0.344523 18.2652 0.342773C8.62926 0.342773 0.787119 8.18102 0.783619 17.8165C0.781869 20.8965 1.58691 23.903 3.11649 26.5525L0.745117 35.3428L9.90332 33.178C12.4567 34.571 15.3303 35.3043 18.2565 35.306H18.2635C27.8977 35.306 35.7399 27.466 35.7451 17.8323C35.7486 13.1615 33.932 8.77077 30.6314 5.46677ZM26.8179 24.0623C26.4539 25.0825 24.6706 26.066 23.869 26.1378C23.0675 26.2113 22.3167 26.5 18.6275 25.0458C14.1875 23.2958 11.3839 18.744 11.1669 18.4535C10.9481 18.1613 9.38355 16.0858 9.38355 13.9368C9.38355 11.7878 10.5124 10.7308 10.9131 10.295C11.3139 9.85752 11.7864 9.74902 12.0787 9.74902C12.3692 9.74902 12.6615 9.74902 12.9152 9.75952C13.2267 9.77177 13.5715 9.78752 13.8988 10.5138C14.2873 11.3783 15.1361 13.5378 15.2446 13.7565C15.3531 13.9753 15.4266 14.2308 15.2813 14.5213C15.1361 14.8118 15.0626 14.9938 14.8456 15.2493C14.6268 15.5048 14.387 15.818 14.191 16.014C13.9723 16.231 13.7448 16.469 13.9985 16.9048C14.254 17.3423 15.1291 18.772 16.4276 19.9288C18.0972 21.4163 19.5026 21.8765 19.9401 22.097C20.3776 22.3158 20.6314 22.279 20.8869 21.9868C21.1424 21.6963 21.9789 20.7128 22.2694 20.2753C22.56 19.8378 22.8522 19.9113 23.253 20.0565C23.6538 20.2018 25.8011 21.2588 26.2369 21.4775C26.6744 21.6963 26.9649 21.8048 27.0734 21.9868C27.1819 22.167 27.1819 23.042 26.8179 24.0623Z" fill="white"/>
</svg>
